<?xml version="1.0" encoding="UTF-8" standalone="no"?>
<!-- Generator: Adobe Illustrator 13.0.2, SVG Export Plug-In . SVG Version: 6.00 Build 14948)  -->
<svg
   xmlns:dc="http://purl.org/dc/elements/1.1/"
   xmlns:cc="http://creativecommons.org/ns#"
   xmlns:rdf="http://www.w3.org/1999/02/22-rdf-syntax-ns#"
   xmlns:svg="http://www.w3.org/2000/svg"
   xmlns="http://www.w3.org/2000/svg"
   xmlns:xlink="http://www.w3.org/1999/xlink"
   xmlns:sodipodi="http://sodipodi.sourceforge.net/DTD/sodipodi-0.dtd"
   xmlns:inkscape="http://www.inkscape.org/namespaces/inkscape"
   version="1.1"
   id="Layer_1"
   x="0px"
   y="0px"
   width="723.977px"
   height="595.448px"
   viewBox="0 0 723.977 595.448"
   enable-background="new 0 0 723.977 595.448"
   xml:space="preserve"
   sodipodi:version="0.32"
   inkscape:version="0.46"
   sodipodi:docname="BB_gears.svg"
   inkscape:output_extension="org.inkscape.output.svg.inkscape"><metadata
   id="metadata2673"><rdf:RDF><cc:Work
       rdf:about=""><dc:format>image/svg+xml</dc:format><dc:type
         rdf:resource="http://purl.org/dc/dcmitype/StillImage" /></cc:Work></rdf:RDF></metadata><defs
   id="defs2671"><linearGradient
   id="linearGradient3495"><stop
     style="stop-color:#6b0000;stop-opacity:1;"
     offset="0"
     id="stop3497" /><stop
     style="stop-color:#ed0000;stop-opacity:1;"
     offset="1"
     id="stop3499" /></linearGradient><inkscape:perspective
   sodipodi:type="inkscape:persp3d"
   inkscape:vp_x="0 : 297.724 : 1"
   inkscape:vp_y="0 : 1000 : 0"
   inkscape:vp_z="723.97699 : 297.724 : 1"
   inkscape:persp3d-origin="361.98849 : 198.48267 : 1"
   id="perspective2675" />
	
	
<linearGradient
   inkscape:collect="always"
   xlink:href="#linearGradient3495"
   id="linearGradient3501"
   x1="334.60935"
   y1="90.388366"
   x2="507.00583"
   y2="90.388366"
   gradientUnits="userSpaceOnUse"
   gradientTransform="matrix(0.9999994,1.1066015e-3,-1.1066015e-3,0.9999994,0.1002816,-0.4656109)" /><linearGradient
   inkscape:collect="always"
   xlink:href="#linearGradient3495"
   id="linearGradient3507"
   gradientUnits="userSpaceOnUse"
   gradientTransform="matrix(0.9999994,1.1066015e-3,-1.1066015e-3,0.9999994,561.64608,10.143569)"
   x1="334.60935"
   y1="90.388366"
   x2="507.00583"
   y2="90.388366" /><linearGradient
   inkscape:collect="always"
   xlink:href="#linearGradient3495"
   id="linearGradient3512"
   gradientUnits="userSpaceOnUse"
   gradientTransform="matrix(0.8256823,-0.5641354,0.5641354,0.8256823,583.90873,263.75789)"
   x1="334.60935"
   y1="90.388366"
   x2="507.00583"
   y2="90.388366" /><linearGradient
   inkscape:collect="always"
   xlink:href="#linearGradient3495"
   id="linearGradient3537"
   gradientUnits="userSpaceOnUse"
   gradientTransform="matrix(0.8256823,-0.5641354,0.5641354,0.8256823,591.01502,263.75789)"
   x1="334.60935"
   y1="90.388366"
   x2="507.00583"
   y2="90.388366" /><linearGradient
   inkscape:collect="always"
   xlink:href="#linearGradient3495"
   id="linearGradient3542"
   gradientUnits="userSpaceOnUse"
   gradientTransform="matrix(0.8256823,-0.5641354,0.5641354,0.8256823,39.027584,392.40451)"
   x1="334.60935"
   y1="90.388366"
   x2="507.00583"
   y2="90.388366" /><linearGradient
   inkscape:collect="always"
   xlink:href="#linearGradient3495"
   id="linearGradient3546"
   gradientUnits="userSpaceOnUse"
   gradientTransform="matrix(0.8256823,-0.5641354,0.5641354,0.8256823,197.81452,529.08186)"
   x1="334.60935"
   y1="90.388366"
   x2="507.00583"
   y2="90.388366" /><linearGradient
   inkscape:collect="always"
   xlink:href="#linearGradient3495"
   id="linearGradient3550"
   gradientUnits="userSpaceOnUse"
   gradientTransform="matrix(0.8256823,-0.5641354,0.5641354,0.8256823,2.8482791,665.75923)"
   x1="334.60935"
   y1="90.388366"
   x2="507.00583"
   y2="90.388366" /><linearGradient
   inkscape:collect="always"
   xlink:href="#linearGradient3495"
   id="linearGradient3552"
   gradientUnits="userSpaceOnUse"
   gradientTransform="matrix(0.8256823,-0.5641354,0.5641354,0.8256823,217.16224,261.74793)"
   x1="334.60935"
   y1="90.388366"
   x2="507.00583"
   y2="90.388366" /></defs><sodipodi:namedview
   inkscape:window-height="752"
   inkscape:window-width="1280"
   inkscape:pageshadow="2"
   inkscape:pageopacity="0.0"
   guidetolerance="10.0"
   gridtolerance="10.0"
   objecttolerance="10.0"
   borderopacity="1.0"
   bordercolor="#666666"
   pagecolor="#ffffff"
   id="base"
   showgrid="false"
   inkscape:zoom="0.49752205"
   inkscape:cx="524.40191"
   inkscape:cy="158.146"
   inkscape:window-x="0"
   inkscape:window-y="4"
   inkscape:current-layer="Layer_1" />








<path
   style="fill:none"
   id="path2650"
   d="M 459.98101,175.70232 C 455.66301,169.51632 449.12801,165.03532 442.09901,162.65332 C 435.01301,160.35132 427.04001,160.35032 419.95401,162.65332 C 412.92501,165.03532 406.39101,169.51632 402.07101,175.70232 C 397.55901,181.76432 395.30901,189.15632 395.19201,196.71832 C 395.30901,204.28032 397.55901,211.67132 402.07101,217.73432 C 406.39001,223.92032 412.92501,228.40132 419.95401,230.78332 C 427.04001,233.08632 435.01301,233.08532 442.09901,230.78332 C 449.12801,228.40132 455.66201,223.92032 459.98101,217.73432 C 464.49501,211.67232 466.74301,204.28032 466.86101,196.71832 C 466.74301,189.15632 464.49401,181.76532 459.98101,175.70232 z" />




<flowRoot
   xml:space="preserve"
   id="flowRoot2677"
   style="font-size:12px;font-style:normal;font-weight:normal;fill:#000000;fill-opacity:1;stroke:none;stroke-width:1px;stroke-linecap:butt;stroke-linejoin:miter;stroke-opacity:1;font-family:Bitstream Vera Sans"><flowRegion
     id="flowRegion2679"><rect
       id="rect2681"
       width="267.99149"
       height="94.663658"
       x="21.332655"
       y="235.45944" /></flowRegion><flowPara
     id="flowPara2683"
     style="font-size:72px">InfoMachineInfo</flowPara></flowRoot><flowRoot
   xml:space="preserve"
   id="flowRoot2685"
   style="font-size:12px;font-style:normal;font-weight:normal;fill:#000000;fill-opacity:1;stroke:none;stroke-width:1px;stroke-linecap:butt;stroke-linejoin:miter;stroke-opacity:1;font-family:Bitstream Vera Sans"
   transform="matrix(1.0120082,0,0,1.1227779,37.995978,93.453151)"><flowRegion
     id="flowRegion2687"><rect
       id="rect2689"
       width="422.65323"
       height="78.664154"
       x="51.998348"
       y="54.131866" /></flowRegion><flowPara
     id="flowPara2691"
     style="font-size:72;font-style:normal;font-variant:normal;font-weight:bold;font-stretch:normal;font-family:Eurostile;-inkscape-font-specification:Eurostile Bold">InfoMachine</flowPara></flowRoot><flowRoot
   xml:space="preserve"
   id="flowRoot2693"
   style="fill:black;stroke:none;stroke-opacity:1;stroke-width:1px;stroke-linejoin:miter;stroke-linecap:butt;fill-opacity:1;font-family:Bitstream Vera Sans;font-style:normal;font-weight:normal;font-size:12px"><flowRegion
     id="flowRegion2695"><rect
       id="rect2697"
       width="299.99048"
       height="82.66404"
       x="46.665184"
       y="192.79413" /></flowRegion><flowPara
     id="flowPara2699"></flowPara></flowRoot><text
   xml:space="preserve"
   style="font-size:77.56876373px;font-style:normal;font-variant:normal;font-weight:bold;font-stretch:normal;text-align:start;line-height:125%;writing-mode:lr-tb;text-anchor:start;fill:#000000;fill-opacity:1;stroke:none;stroke-width:1px;stroke-linecap:butt;stroke-linejoin:miter;stroke-opacity:1;font-family:Eurostile;-inkscape-font-specification:Eurostile Bold"
   x="228.46056"
   y="371.50177"
   id="text2707"
   sodipodi:linespacing="125%"
   transform="scale(0.965573,1.0356545)"><tspan
     sodipodi:role="line"
     id="tspan2709"
     x="228.46056"
     y="371.50177"
     style="font-size:77.56876373px;font-style:normal;font-variant:normal;font-weight:bold;font-stretch:normal;text-align:start;line-height:125%;writing-mode:lr-tb;text-anchor:start;font-family:Eurostile;-inkscape-font-specification:Eurostile Bold">InfoMachine</tspan></text>
<text
   xml:space="preserve"
   style="font-size:72px;font-style:normal;font-variant:normal;font-weight:900;font-stretch:condensed;text-align:start;line-height:125%;writing-mode:lr-tb;text-anchor:start;fill:#000000;fill-opacity:1;stroke:none;stroke-width:1px;stroke-linecap:butt;stroke-linejoin:miter;stroke-opacity:1;font-family:Helvetica Neue;-inkscape-font-specification:Helvetica Neue Heavy Condensed"
   x="48.647064"
   y="520.25793"
   id="text2711"
   sodipodi:linespacing="125%"><tspan
     sodipodi:role="line"
     id="tspan2713"
     x="48.647064"
     y="520.25793"
     style="font-size:72px;font-style:normal;font-variant:normal;font-weight:900;font-stretch:condensed;text-align:start;line-height:125%;writing-mode:lr-tb;text-anchor:start;font-family:Helvetica Neue;-inkscape-font-specification:Helvetica Neue Heavy Condensed">InfoMachine</tspan></text>
<text
   xml:space="preserve"
   style="font-size:12px;font-style:normal;font-weight:normal;line-height:125%;fill:#000000;fill-opacity:1;stroke:none;stroke-width:1px;stroke-linecap:butt;stroke-linejoin:miter;stroke-opacity:1;font-family:Bitstream Vera Sans"
   x="37.422623"
   y="249.48398"
   id="text2703"
   sodipodi:linespacing="125%"><tspan
     sodipodi:role="line"
     id="tspan2705"
     x="37.422623"
     y="249.48398"
     style="font-size:72px;font-style:normal;font-variant:normal;font-weight:bold;font-stretch:normal;text-align:start;line-height:125%;writing-mode:lr-tb;text-anchor:start;font-family:Arial Rounded MT Bold;-inkscape-font-specification:'Arial Rounded MT Bold, Bold'">InfoMachine</tspan></text>
<path
   style="fill:url(#linearGradient3552);fill-opacity:1"
   d="M 617.70972,13.427536 C 616.62373,13.453577 615.51374,13.533734 614.42847,13.615036 C 611.12518,20.86417 608.68029,28.172843 607.08472,35.646286 C 604.21606,36.022326 601.4493,36.90225 598.64722,37.646286 C 595.90231,38.571875 593.12619,39.546789 590.49097,40.771286 C 585.77504,35.401314 580.29328,30.129815 574.39722,25.615036 C 570.5963,27.846026 566.89764,30.223678 563.45972,32.990036 C 564.9606,40.435082 567.47848,47.814464 570.49097,54.427536 C 568.39141,56.438008 566.47601,58.644372 564.61597,60.865036 C 563.51617,62.369598 562.38449,63.860983 561.33472,65.396286 L 594.67847,65.396286 C 595.00694,65.396286 595.32413,65.409151 595.64722,65.427536 C 598.6435,63.613736 601.8497,62.166338 605.14722,61.146286 C 613.27574,58.739326 622.21546,58.528479 630.11602,61.302536 C 638.12492,63.838683 644.81982,69.037178 649.58472,75.771286 C 654.12612,82.658218 656.53902,90.762364 655.99102,99.146286 C 655.70342,107.51467 652.25042,115.79253 647.05342,122.49004 C 641.75302,129.15246 634.21872,134.31873 626.08472,136.83379 C 617.9562,139.24078 608.98615,139.45099 601.08472,136.67754 C 597.67777,135.59789 594.52858,134.00944 591.64722,132.05254 L 557.80347,132.05254 C 558.70096,133.58127 559.67636,135.04342 560.55347,136.58379 C 562.29637,138.73387 563.76318,141.12719 565.74097,143.08379 C 561.75004,149.40376 558.06154,156.40846 555.27222,163.49004 C 558.39398,166.33749 561.77329,168.87093 565.33472,171.17754 C 572.21508,167.0698 578.65689,162.11179 584.24097,156.99004 C 586.85558,158.02275 589.34132,159.35704 592.08472,160.08379 C 594.74934,161.02285 597.50739,161.68581 600.30347,162.20879 C 600.70813,169.68553 601.91169,176.81128 603.77222,184.20879 C 608.06611,184.55122 612.4321,184.68959 616.77222,184.36504 C 620.07643,177.11523 622.5213,169.80659 624.11597,162.33379 C 626.98452,161.95775 629.78252,161.07787 632.58472,160.33379 C 635.32962,159.40823 638.07452,158.43328 640.70972,157.20879 C 645.42562,162.57876 650.93852,167.85026 656.83472,172.36504 C 660.63552,170.13406 664.33422,167.7564 667.77222,164.99004 C 666.27142,157.54499 663.75342,150.16561 660.74102,143.55254 C 662.84042,141.54206 664.72472,139.30445 666.58472,137.08379 C 668.29592,134.74291 670.12972,132.49544 671.52222,129.95879 C 678.84182,131.50222 686.41322,132.37075 694.08472,132.49004 C 696.08782,128.60232 697.47432,124.47958 698.89722,120.39629 C 692.85622,115.37822 686.81902,111.19856 680.08472,107.74004 C 680.61322,104.94425 680.99032,102.12534 681.08472,99.302536 C 681.40522,96.481089 681.06512,93.67616 681.05342,90.865036 C 687.95152,87.88002 694.81012,84.196005 701.45972,79.833786 C 700.52982,75.705394 699.63822,71.556599 698.11602,67.615036 C 690.31502,67.05831 682.35352,67.468984 674.80342,68.583786 C 673.69882,66.030715 672.01672,63.770281 670.64722,61.365036 C 668.90432,59.214942 667.43752,56.852844 665.45972,54.896286 C 669.45062,48.576274 673.13922,41.571627 675.92842,34.490036 C 672.80762,31.641932 669.42552,29.110456 665.86602,26.802536 C 658.98482,30.910921 652.54482,35.867613 646.95972,40.990036 C 644.34532,39.957269 641.86032,38.591109 639.11602,37.865036 C 636.45142,36.925923 633.69262,36.293375 630.89722,35.771286 C 630.49242,28.294595 629.28802,21.169462 627.42842,13.771286 C 624.20735,13.514951 620.96768,13.349412 617.70972,13.427536 z"
   id="path3503" /><text
   xml:space="preserve"
   style="font-size:12px;font-style:normal;font-weight:normal;line-height:125%;fill:#000000;fill-opacity:1;stroke:none;stroke-width:1px;stroke-linecap:butt;stroke-linejoin:miter;stroke-opacity:1;font-family:Bitstream Vera Sans"
   x="155.15228"
   y="121.76753"
   id="text3518"
   sodipodi:linespacing="125%"><tspan
     sodipodi:role="line"
     id="tspan3520"
     x="155.15228"
     y="121.76753"
     style="font-size:82px;font-style:normal;font-variant:normal;font-weight:normal;font-stretch:normal;text-align:start;line-height:125%;writing-mode:lr-tb;text-anchor:start;font-family:Arial Rounded MT Bold;-inkscape-font-specification:'Arial Rounded MT Bold,'">InfoMachine</tspan></text>
<path
   style="fill:url(#linearGradient3542);fill-opacity:1"
   d="M 439.57506,144.08411 C 438.48907,144.11016 437.37908,144.19031 436.29381,144.27161 C 432.99052,151.52075 430.54563,158.82942 428.95006,166.30287 C 426.0814,166.67891 423.31464,167.55883 420.51256,168.30287 C 417.76765,169.22845 414.99153,170.20337 412.35631,171.42787 C 407.64038,166.05789 402.15862,160.78639 396.26256,156.27162 C 392.46164,158.50261 388.76298,160.88026 385.32506,163.64662 C 386.82594,171.09166 389.34382,178.47104 392.35631,185.08412 C 390.25675,187.09459 388.34135,189.30095 386.48131,191.52162 C 385.38151,193.02618 384.24983,194.51756 383.20006,196.05287 L 416.54381,196.05287 C 416.87228,196.05287 417.18947,196.06573 417.51256,196.08412 C 420.50884,194.27032 423.71504,192.82292 427.01256,191.80287 C 435.14108,189.39591 444.0808,189.18506 451.98136,191.95912 C 459.99027,194.49526 466.68517,199.69376 471.45007,206.42787 C 475.99147,213.3148 478.40437,221.41894 477.85637,229.80287 C 477.56877,238.17125 474.11577,246.44911 468.91877,253.14662 C 463.61837,259.80904 456.08406,264.97531 447.95006,267.49037 C 439.82154,269.89736 430.85149,270.10757 422.95006,267.33412 C 419.54311,266.25447 416.39392,264.66602 413.51256,262.70912 L 379.66881,262.70912 C 380.5663,264.23785 381.5417,265.7 382.41881,267.24037 C 384.16171,269.39045 385.62852,271.78377 387.60631,273.74037 C 383.61538,280.06034 379.92688,287.06504 377.13756,294.14662 C 380.25932,296.99407 383.63863,299.52751 387.20006,301.83412 C 394.08042,297.72638 400.52223,292.76837 406.10631,287.64662 C 408.72092,288.67933 411.20666,290.01362 413.95006,290.74037 C 416.61468,291.67943 419.37273,292.34239 422.16881,292.86537 C 422.57347,300.34211 423.77703,307.46786 425.63756,314.86537 C 429.93145,315.2078 434.29744,315.34617 438.63756,315.02162 C 441.94177,307.77181 444.38664,300.46317 445.98131,292.99037 C 448.84986,292.61433 451.64786,291.73445 454.45006,290.99037 C 457.19496,290.06481 459.93987,289.08986 462.57507,287.86537 C 467.29097,293.23534 472.80387,298.50684 478.70007,303.02162 C 482.50087,300.79064 486.19957,298.41298 489.63757,295.64662 C 488.13677,288.20157 485.61877,280.82219 482.60637,274.20912 C 484.70577,272.19864 486.59007,269.96103 488.45007,267.74037 C 490.16127,265.39949 491.99507,263.15202 493.38757,260.61537 C 500.70717,262.1588 508.27857,263.02733 515.95007,263.14662 C 517.95317,259.2589 519.33967,255.13616 520.76257,251.05287 C 514.72157,246.0348 508.68437,241.85514 501.95007,238.39662 C 502.47857,235.60083 502.85567,232.78192 502.95007,229.95912 C 503.27057,227.13767 502.93047,224.33274 502.91877,221.52162 C 509.81687,218.5366 516.67547,214.85258 523.32507,210.49037 C 522.39517,206.36197 521.50357,202.21318 519.98137,198.27162 C 512.18037,197.71489 504.21887,198.12556 496.66877,199.24037 C 495.56417,196.68729 493.88207,194.42686 492.51257,192.02162 C 490.76967,189.87152 489.30287,187.50942 487.32507,185.55287 C 491.31597,179.23285 495.00457,172.22821 497.79377,165.14662 C 494.67297,162.29851 491.29087,159.76704 487.73137,157.45912 C 480.85017,161.5675 474.41017,166.52419 468.82507,171.64662 C 466.21067,170.61385 463.72567,169.24769 460.98137,168.52162 C 458.31677,167.5825 455.55796,166.94995 452.76256,166.42787 C 452.35776,158.95117 451.15336,151.82604 449.29376,144.42786 C 446.07269,144.17153 442.83302,144.00599 439.57506,144.08411 z"
   id="path3540" /><path
   style="fill:url(#linearGradient3546);fill-opacity:1"
   d="M 598.36199,280.76147 C 597.276,280.78751 596.16601,280.86767 595.08074,280.94897 C 591.77745,288.19811 589.33256,295.50678 587.73699,302.98022 C 584.86833,303.35626 582.10157,304.23619 579.29949,304.98022 C 576.55458,305.90581 573.77846,306.88073 571.14324,308.10522 C 566.42731,302.73525 560.94555,297.46375 555.04949,292.94897 C 551.24857,295.17996 547.54991,297.55761 544.11199,300.32397 C 545.61287,307.76902 548.13075,315.1484 551.14324,321.76147 C 549.04368,323.77194 547.12828,325.97831 545.26824,328.19897 C 544.16844,329.70353 543.03676,331.19492 541.98699,332.73022 L 575.33074,332.73022 C 575.65921,332.73022 575.9764,332.74309 576.29949,332.76147 C 579.29577,330.94767 582.50197,329.50027 585.79949,328.48022 C 593.92801,326.07326 602.86773,325.86242 610.76829,328.63647 C 618.77719,331.17262 625.47209,336.37111 630.23699,343.10522 C 634.77839,349.99215 637.19129,358.0963 636.64329,366.48022 C 636.35569,374.8486 632.90269,383.12646 627.70569,389.82397 C 622.40529,396.48639 614.87099,401.65266 606.73699,404.16772 C 598.60847,406.57471 589.63842,406.78492 581.73699,404.01147 C 578.33004,402.93182 575.18085,401.34337 572.29949,399.38647 L 538.45574,399.38647 C 539.35323,400.9152 540.32863,402.37735 541.20574,403.91772 C 542.94864,406.0678 544.41545,408.46112 546.39324,410.41772 C 542.40231,416.73769 538.71381,423.74239 535.92449,430.82397 C 539.04625,433.67142 542.42556,436.20486 545.98699,438.51147 C 552.86735,434.40373 559.30916,429.44572 564.89324,424.32397 C 567.50785,425.35668 569.99359,426.69097 572.73699,427.41772 C 575.40161,428.35678 578.15966,429.01974 580.95574,429.54272 C 581.3604,437.01946 582.56396,444.14521 584.42449,451.54272 C 588.71838,451.88515 593.08437,452.02352 597.42449,451.69897 C 600.7287,444.44916 603.17357,437.14052 604.76824,429.66772 C 607.63679,429.29168 610.43479,428.4118 613.23699,427.66772 C 615.98189,426.74216 618.72679,425.76721 621.36199,424.54272 C 626.07789,429.91269 631.59079,435.18419 637.48699,439.69897 C 641.28779,437.46799 644.98649,435.09033 648.42449,432.32397 C 646.92369,424.87892 644.40569,417.49954 641.39329,410.88647 C 643.49269,408.87599 645.37699,406.63838 647.23699,404.41772 C 648.94819,402.07684 650.78199,399.82937 652.17449,397.29272 C 659.49409,398.83615 667.06549,399.70468 674.73699,399.82397 C 676.74009,395.93625 678.12659,391.81351 679.54949,387.73022 C 673.50849,382.71215 667.47129,378.53249 660.73699,375.07397 C 661.26549,372.27818 661.64259,369.45927 661.73699,366.63647 C 662.05749,363.81503 661.71739,361.0101 661.70569,358.19897 C 668.60379,355.21396 675.46239,351.52994 682.11199,347.16772 C 681.18209,343.03933 680.29049,338.89054 678.76829,334.94897 C 670.96729,334.39225 663.00579,334.80292 655.45569,335.91772 C 654.35109,333.36465 652.66899,331.10422 651.29949,328.69897 C 649.55659,326.54888 648.08979,324.18678 646.11199,322.23022 C 650.10289,315.91021 653.79149,308.90556 656.58069,301.82397 C 653.45989,298.97587 650.07779,296.44439 646.51829,294.13647 C 639.63709,298.24486 633.19709,303.20155 627.61199,308.32397 C 624.99759,307.29121 622.51259,305.92505 619.76829,305.19897 C 617.10369,304.25986 614.34489,303.62731 611.54949,303.10522 C 611.14469,295.62853 609.94029,288.5034 608.08069,281.10522 C 604.85962,280.84889 601.61995,280.68335 598.36199,280.76147 z"
   id="path3544" /><path
   style="fill:url(#linearGradient3550);fill-opacity:1"
   d="M 403.39575,417.43884 C 402.30976,417.46488 401.19977,417.54504 400.1145,417.62634 C 396.81121,424.87548 394.36632,432.18415 392.77075,439.65759 C 389.90209,440.03363 387.13533,440.91356 384.33325,441.65759 C 381.58834,442.58318 378.81222,443.5581 376.177,444.78259 C 371.46107,439.41262 365.97931,434.14112 360.08325,429.62634 C 356.28233,431.85733 352.58367,434.23499 349.14575,437.00134 C 350.64663,444.44639 353.16451,451.82577 356.177,458.43884 C 354.07744,460.44932 352.16204,462.65568 350.302,464.87634 C 349.2022,466.38091 348.07052,467.87229 347.02075,469.40759 L 380.3645,469.40759 C 380.69297,469.40759 381.01016,469.42046 381.33325,469.43884 C 384.32953,467.62504 387.53573,466.17765 390.83325,465.15759 C 398.96177,462.75063 407.90149,462.53979 415.80205,465.31384 C 423.81095,467.84999 430.50585,473.04849 435.27075,479.78259 C 439.81215,486.66953 442.22505,494.77367 441.67705,503.15759 C 441.38945,511.52597 437.93645,519.80383 432.73945,526.50134 C 427.43905,533.16376 419.90475,538.33003 411.77075,540.84509 C 403.64223,543.25208 394.67218,543.46229 386.77075,540.68884 C 383.3638,539.60919 380.21461,538.02074 377.33325,536.06384 L 343.4895,536.06384 C 344.38699,537.59257 345.36239,539.05472 346.2395,540.59509 C 347.9824,542.74517 349.44921,545.13849 351.427,547.09509 C 347.43607,553.41506 343.74757,560.41976 340.95825,567.50134 C 344.08001,570.34879 347.45932,572.88223 351.02075,575.18884 C 357.90111,571.0811 364.34292,566.12309 369.927,561.00134 C 372.54161,562.03405 375.02735,563.36834 377.77075,564.09509 C 380.43537,565.03415 383.19342,565.69711 385.9895,566.22009 C 386.39416,573.69683 387.59772,580.82258 389.45825,588.22009 C 393.75214,588.56252 398.11813,588.70089 402.45825,588.37634 C 405.76246,581.12653 408.20733,573.81789 409.802,566.34509 C 412.67055,565.96905 415.46855,565.08917 418.27075,564.34509 C 421.01565,563.41953 423.76055,562.44458 426.39575,561.22009 C 431.11165,566.59006 436.62455,571.86156 442.52075,576.37634 C 446.32155,574.14536 450.02025,571.7677 453.45825,569.00134 C 451.95745,561.55629 449.43945,554.17691 446.42705,547.56384 C 448.52645,545.55336 450.41075,543.31575 452.27075,541.09509 C 453.98195,538.75421 455.81575,536.50674 457.20825,533.97009 C 464.52785,535.51352 472.09925,536.38205 479.77075,536.50134 C 481.77385,532.61362 483.16035,528.49088 484.58325,524.40759 C 478.54225,519.38952 472.50505,515.20986 465.77075,511.75134 C 466.29925,508.95555 466.67635,506.13664 466.77075,503.31384 C 467.09125,500.4924 466.75115,497.68747 466.73945,494.87634 C 473.63755,491.89133 480.49615,488.20731 487.14575,483.84509 C 486.21585,479.7167 485.32425,475.56791 483.80205,471.62634 C 476.00105,471.06962 468.03955,471.48029 460.48945,472.59509 C 459.38485,470.04202 457.70275,467.78159 456.33325,465.37634 C 454.59035,463.22625 453.12355,460.86415 451.14575,458.90759 C 455.13665,452.58758 458.82525,445.58293 461.61445,438.50134 C 458.49365,435.65324 455.11155,433.12176 451.55205,430.81384 C 444.67085,434.92223 438.23085,439.87892 432.64575,445.00134 C 430.03135,443.96858 427.54635,442.60242 424.80205,441.87634 C 422.13745,440.93723 419.37865,440.30468 416.58325,439.78259 C 416.17845,432.3059 414.97405,425.18077 413.11445,417.78259 C 409.89338,417.52626 406.65371,417.36072 403.39575,417.43884 z"
   id="path3548" /></svg>