<?xml version="1.0" encoding="UTF-8" standalone="no"?>
<!-- Created with Inkscape (http://www.inkscape.org/) -->
<svg
   xmlns:svg="http://www.w3.org/2000/svg"
   xmlns="http://www.w3.org/2000/svg"
   xmlns:xlink="http://www.w3.org/1999/xlink"
   version="1.0"
   width="744.09448"
   height="1052.3622"
   id="svg2525">
  <defs
     id="defs2527">
    <linearGradient
       id="linearGradient3495">
      <stop
         id="stop3497"
         style="stop-color:#6b0000;stop-opacity:1"
         offset="0" />
      <stop
         id="stop3499"
         style="stop-color:#ed0000;stop-opacity:1"
         offset="1" />
    </linearGradient>
    <linearGradient
       x1="334.60934"
       y1="90.388367"
       x2="507.00583"
       y2="90.388367"
       id="linearGradient3546"
       xlink:href="#linearGradient3495"
       gradientUnits="userSpaceOnUse"
       gradientTransform="matrix(1.7133195,-0.9785302,1.1706006,1.4322007,-182.08436,520.41085)" />
    <linearGradient
       x1="334.60934"
       y1="90.388367"
       x2="507.00583"
       y2="90.388367"
       id="linearGradient2545"
       xlink:href="#linearGradient3495"
       gradientUnits="userSpaceOnUse"
       gradientTransform="matrix(1.7133195,-0.9785302,1.1706006,1.4322007,12.201354,708.98228)" />
    <linearGradient
       x1="334.60934"
       y1="90.388367"
       x2="507.00583"
       y2="90.388367"
       id="linearGradient2550"
       xlink:href="#linearGradient3495"
       gradientUnits="userSpaceOnUse"
       gradientTransform="matrix(1.7133195,-0.9785302,1.1706006,1.4322007,-242.50938,466.14502)" />
    <linearGradient
       x1="334.60934"
       y1="90.388367"
       x2="507.00583"
       y2="90.388367"
       id="linearGradient2557"
       xlink:href="#linearGradient3495"
       gradientUnits="userSpaceOnUse"
       gradientTransform="matrix(1.7133195,-0.9785302,1.1706006,1.4322007,-242.50938,466.14502)" />
  </defs>
  <g
     id="layer1">
    <g
       transform="matrix(1.3160449,0,0,1.3160449,-150.42133,-107.76804)"
       id="g2552">
      <text
         x="170.04437"
         y="326.8576"
         transform="scale(0.965573,1.0356545)"
         id="text2707"
         xml:space="preserve"
         style="font-size:77.56876373px;font-style:normal;font-variant:normal;font-weight:bold;font-stretch:normal;text-align:start;line-height:125%;writing-mode:lr-tb;text-anchor:start;fill:#000000;fill-opacity:1;stroke:none;stroke-width:1px;stroke-linecap:butt;stroke-linejoin:miter;stroke-opacity:1;font-family:Eurostile;-inkscape-font-specification:Eurostile Bold"><tspan
           x="170.04437"
           y="326.8576"
           id="tspan2709"
           style="font-size:77.56876373px;font-style:normal;font-variant:normal;font-weight:bold;font-stretch:normal;text-align:start;line-height:125%;writing-mode:lr-tb;text-anchor:start;font-family:Eurostile;-inkscape-font-specification:Eurostile Bold">InfoMachine</tspan></text>
      <path
         d="M 541.95689,232.52552 C 540.8709,232.55156 539.76091,232.63172 538.67564,232.71302 C 535.37235,239.96216 532.92746,247.27083 531.33189,254.74427 C 528.46323,255.12031 525.69647,256.00024 522.89439,256.74427 C 520.14948,257.66986 517.37336,258.64478 514.73814,259.86927 C 510.02221,254.4993 504.54045,249.2278 498.64439,244.71302 C 494.84347,246.94401 491.14481,249.32166 487.70689,252.08802 C 489.20777,259.53307 491.72565,266.91245 494.73814,273.52552 C 492.63858,275.53599 490.72318,277.74236 488.86314,279.96302 C 487.76334,281.46758 486.63166,282.95897 485.58189,284.49427 L 518.92564,284.49427 C 519.25411,284.49427 519.5713,284.50714 519.89439,284.52552 C 522.89067,282.71172 526.09687,281.26432 529.39439,280.24427 C 537.52291,277.83731 546.46263,277.62647 554.36319,280.40052 C 562.37209,282.93667 569.06699,288.13516 573.83189,294.86927 C 578.37329,301.7562 580.78619,309.86035 580.23819,318.24427 C 579.95059,326.61265 576.49759,334.89051 571.30059,341.58802 C 566.00019,348.25044 558.46589,353.41671 550.33189,355.93177 C 542.20337,358.33876 533.23332,358.54897 525.33189,355.77552 C 521.92494,354.69587 518.77575,353.10742 515.89439,351.15052 L 482.05064,351.15052 C 482.94813,352.67925 483.92353,354.1414 484.80064,355.68177 C 486.54354,357.83185 488.01035,360.22517 489.98814,362.18177 C 485.99721,368.50174 482.30871,375.50644 479.51939,382.58802 C 482.64115,385.43547 486.02046,387.96891 489.58189,390.27552 C 496.46225,386.16778 502.90406,381.20977 508.48814,376.08802 C 511.10275,377.12073 513.58849,378.45502 516.33189,379.18177 C 518.99651,380.12083 521.75456,380.78379 524.55064,381.30677 C 524.9553,388.78351 526.15886,395.90926 528.01939,403.30677 C 532.31328,403.6492 536.67927,403.78757 541.01939,403.46302 C 544.3236,396.21321 546.76847,388.90457 548.36314,381.43177 C 551.23169,381.05573 554.02969,380.17585 556.83189,379.43177 C 559.57679,378.50621 562.32169,377.53126 564.95689,376.30677 C 569.67279,381.67674 575.18569,386.94824 581.08189,391.46302 C 584.88269,389.23204 588.58139,386.85438 592.01939,384.08802 C 590.51859,376.64297 588.00059,369.26359 584.98819,362.65052 C 587.08759,360.64004 588.97189,358.40243 590.83189,356.18177 C 592.54309,353.84089 594.37689,351.59342 595.76939,349.05677 C 603.08899,350.6002 610.66039,351.46873 618.33189,351.58802 C 620.33499,347.7003 621.72149,343.57756 623.14439,339.49427 C 617.10339,334.4762 611.06619,330.29654 604.33189,326.83802 C 604.86039,324.04223 605.23749,321.22332 605.33189,318.40052 C 605.65239,315.57908 605.31229,312.77415 605.30059,309.96302 C 612.19869,306.97801 619.05729,303.29399 625.70689,298.93177 C 624.77699,294.80338 623.88539,290.65459 622.36319,286.71302 C 614.56219,286.1563 606.60069,286.56697 599.05059,287.68177 C 597.94599,285.1287 596.26389,282.86827 594.89439,280.46302 C 593.15149,278.31293 591.68469,275.95083 589.70689,273.99427 C 593.69779,267.67426 597.38639,260.66961 600.17559,253.58802 C 597.05479,250.73992 593.67269,248.20844 590.11319,245.90052 C 583.23199,250.00891 576.79199,254.9656 571.20689,260.08802 C 568.59249,259.05526 566.10749,257.6891 563.36319,256.96302 C 560.69859,256.02391 557.93979,255.39136 555.14439,254.86927 C 554.73959,247.39258 553.53519,240.26745 551.67559,232.86927 C 548.45452,232.61294 545.21485,232.4474 541.95689,232.52552 z"
         id="path3544"
         style="fill:url(#linearGradient2557);fill-opacity:1" />
    </g>
  </g>
</svg>
