<?xml version="1.0" standalone="no"?>
<!DOCTYPE svg PUBLIC "-//W3C//DTD SVG 1.1//EN" "http://www.w3.org/Graphics/SVG/1.1/DTD/svg11.dtd">
<svg xmlns="http://www.w3.org/2000/svg" xmlns:xlink="http://www.w3.org/1999/xlink"
viewBox = "0 0 1200 480" version = "1.1">
<defs><path id="arrow" d="M -7 -7 L 0 0 L -7 7"/>
</defs>
<g stroke = "rgb(139,98,61)" stroke-width = "2" fill = "none">
<path d = "M 90 80 L 180 80"/>
<use x="90" y="80" xlink:href="#arrow" transform="rotate(180,90,80)"/>
</g>
<g stroke="none" fill="black" font-size="16">
<text x="111" y="72" stroke="none" fill="black">1*</text>
<text x="156" y="72" stroke="none" fill="black">2*</text>
</g>
<text x="240" y="80" font-size="20" stroke-width="1" fill="black" stroke="none">M1</text>
<g stroke = "black" stroke-width = "1" fill = "none">
<line x1 = "96.4286" y1 = "232" x2 = "96.4286" y2 = "240"/>
<line x1 = "102.857" y1 = "232" x2 = "102.857" y2 = "240"/>
<line x1 = "109.286" y1 = "232" x2 = "109.286" y2 = "240"/>
<line x1 = "115.714" y1 = "232" x2 = "115.714" y2 = "240"/>
<line x1 = "122.143" y1 = "232" x2 = "122.143" y2 = "240"/>
<line x1 = "128.571" y1 = "232" x2 = "128.571" y2 = "240"/>
<line x1 = "135" y1 = "232" x2 = "135" y2 = "240"/>
<line x1 = "141.429" y1 = "232" x2 = "141.429" y2 = "240"/>
<line x1 = "147.857" y1 = "232" x2 = "147.857" y2 = "240"/>
<line x1 = "154.286" y1 = "232" x2 = "154.286" y2 = "240"/>
<line x1 = "160.714" y1 = "232" x2 = "160.714" y2 = "240"/>
<line x1 = "167.143" y1 = "232" x2 = "167.143" y2 = "240"/>
<line x1 = "173.571" y1 = "232" x2 = "173.571" y2 = "240"/>
<line x1 = "180" y1 = "232" x2 = "180" y2 = "240"/>
</g>
<g stroke = "black" stroke-width = "2" fill = "none">
<path d = "M 180 232 a 2.550000e+01 40 0 1 1 0 8 L 135 240" stroke="rgb(69,181,215)"/>
<line x1 = "45" y1 = "232" x2 = "180" y2 = "232" stroke = "rgb(241,139,17)"/>
<path d = "M 135 240 L 90 240 L 45 288" stroke = "rgb(0,159,47)"/>
<use x="45" y="288" stroke="rgb(0,159,47)" xlink:href="#arrow" transform="rotate(136.848,45,288)"/>
</g>
<g stroke="none" fill="black" font-size="16">
<text x="66" y="224" stroke="none" fill="black">1</text>
<text x="111" y="224" stroke="none" fill="black">2</text>
<text x="156" y="224" stroke="none" fill="black">5*</text>
<text x="225" y="208" stroke="none" fill="black">6*</text>
<text x="225" y="272" stroke="none" fill="black">7*</text>
<text x="156" y="256" stroke="none" fill="black">5</text>
<text x="111" y="256" stroke="none" fill="black">2*</text>
<text x="81" y="272" stroke="none" fill="black">6*</text>
<text x="66" y="288" stroke="none" fill="black">7*</text>
</g>
<text x="240" y="240" font-size="20" stroke-width="1" fill="black" stroke="none">M2</text>
<g stroke = "black" stroke-width = "1" fill = "none">
<line x1 = "96.4286" y1 = "392" x2 = "96.4286" y2 = "400"/>
<line x1 = "102.857" y1 = "392" x2 = "102.857" y2 = "400"/>
<line x1 = "109.286" y1 = "392" x2 = "109.286" y2 = "400"/>
<line x1 = "115.714" y1 = "392" x2 = "115.714" y2 = "400"/>
<line x1 = "122.143" y1 = "392" x2 = "122.143" y2 = "400"/>
<line x1 = "128.571" y1 = "392" x2 = "128.571" y2 = "400"/>
<line x1 = "135" y1 = "392" x2 = "135" y2 = "400"/>
<line x1 = "141.429" y1 = "392" x2 = "141.429" y2 = "400"/>
<line x1 = "147.857" y1 = "392" x2 = "147.857" y2 = "400"/>
<line x1 = "154.286" y1 = "392" x2 = "154.286" y2 = "400"/>
<line x1 = "160.714" y1 = "392" x2 = "160.714" y2 = "400"/>
<line x1 = "167.143" y1 = "392" x2 = "167.143" y2 = "400"/>
<line x1 = "173.571" y1 = "392" x2 = "173.571" y2 = "400"/>
<line x1 = "180" y1 = "392" x2 = "180" y2 = "400"/>
</g>
<g stroke = "black" stroke-width = "2" fill = "none">
<path d = "M 180 392 a 2.550000e+01 40 0 1 1 0 8 L 135 400" stroke="rgb(69,181,215)"/>
<line x1 = "45" y1 = "392" x2 = "180" y2 = "392" stroke = "rgb(241,139,17)"/>
<path d = "M 135 400 L 90 400 L 45 448" stroke = "rgb(0,159,47)"/>
<use x="45" y="448" stroke="rgb(0,159,47)" xlink:href="#arrow" transform="rotate(136.848,45,448)"/>
</g>
<g stroke="none" fill="black" font-size="16">
<text x="66" y="384" stroke="none" fill="black">5*</text>
<text x="111" y="384" stroke="none" fill="black">7</text>
<text x="156" y="384" stroke="none" fill="black">6</text>
<text x="225" y="368" stroke="none" fill="black">15*</text>
<text x="225" y="432" stroke="none" fill="black">16*</text>
<text x="156" y="416" stroke="none" fill="black">6*</text>
<text x="111" y="416" stroke="none" fill="black">7*</text>
<text x="81" y="432" stroke="none" fill="black">15*</text>
<text x="66" y="448" stroke="none" fill="black">16*</text>
</g>
<text x="240" y="400" font-size="20" stroke-width="1" fill="black" stroke="none">M3</text>
<g stroke = "black" stroke-width = "1" fill = "none">
<line x1 = "396.429" y1 = "72" x2 = "396.429" y2 = "80"/>
<line x1 = "402.857" y1 = "72" x2 = "402.857" y2 = "80"/>
<line x1 = "409.286" y1 = "72" x2 = "409.286" y2 = "80"/>
<line x1 = "415.714" y1 = "72" x2 = "415.714" y2 = "80"/>
<line x1 = "422.143" y1 = "72" x2 = "422.143" y2 = "80"/>
<line x1 = "428.571" y1 = "72" x2 = "428.571" y2 = "80"/>
<line x1 = "435" y1 = "72" x2 = "435" y2 = "80"/>
<line x1 = "441.429" y1 = "72" x2 = "441.429" y2 = "80"/>
<line x1 = "447.857" y1 = "72" x2 = "447.857" y2 = "80"/>
<line x1 = "454.286" y1 = "72" x2 = "454.286" y2 = "80"/>
<line x1 = "460.714" y1 = "72" x2 = "460.714" y2 = "80"/>
<line x1 = "467.143" y1 = "72" x2 = "467.143" y2 = "80"/>
<line x1 = "473.571" y1 = "72" x2 = "473.571" y2 = "80"/>
<line x1 = "480" y1 = "72" x2 = "480" y2 = "80"/>
</g>
<g stroke = "black" stroke-width = "2" fill = "none">
<path d = "M 480 72 a 2.550000e+01 40 0 1 1 0 8 L 435 80" stroke="rgb(69,181,215)"/>
<line x1 = "345" y1 = "72" x2 = "480" y2 = "72" stroke = "rgb(241,139,17)"/>
<path d = "M 435 80 L 390 80 L 345 128" stroke = "rgb(0,159,47)"/>
<use x="345" y="72" stroke="rgb(241,139,17)" xlink:href="#arrow" transform="rotate(180,345,72)"/>
</g>
<g stroke="none" fill="black" font-size="16">
<text x="366" y="64" stroke="none" fill="black">2</text>
<text x="411" y="64" stroke="none" fill="black">6</text>
<text x="456" y="64" stroke="none" fill="black">7</text>
<text x="525" y="48" stroke="none" fill="black">16*</text>
<text x="525" y="112" stroke="none" fill="black">15*</text>
<text x="456" y="96" stroke="none" fill="black">7*</text>
<text x="411" y="96" stroke="none" fill="black">6*</text>
<text x="381" y="112" stroke="none" fill="black">16*</text>
<text x="366" y="128" stroke="none" fill="black">15*</text>
</g>
<text x="540" y="80" font-size="20" stroke-width="1" fill="black" stroke="none">M4</text>
<g stroke = "black" stroke-width = "1" fill = "none">
<line x1 = "396.429" y1 = "232" x2 = "396.429" y2 = "240"/>
<line x1 = "402.857" y1 = "232" x2 = "402.857" y2 = "240"/>
<line x1 = "409.286" y1 = "232" x2 = "409.286" y2 = "240"/>
<line x1 = "415.714" y1 = "232" x2 = "415.714" y2 = "240"/>
<line x1 = "422.143" y1 = "232" x2 = "422.143" y2 = "240"/>
<line x1 = "428.571" y1 = "232" x2 = "428.571" y2 = "240"/>
<line x1 = "435" y1 = "232" x2 = "435" y2 = "240"/>
<line x1 = "441.429" y1 = "232" x2 = "441.429" y2 = "240"/>
<line x1 = "447.857" y1 = "232" x2 = "447.857" y2 = "240"/>
<line x1 = "454.286" y1 = "232" x2 = "454.286" y2 = "240"/>
<line x1 = "460.714" y1 = "232" x2 = "460.714" y2 = "240"/>
<line x1 = "467.143" y1 = "232" x2 = "467.143" y2 = "240"/>
<line x1 = "473.571" y1 = "232" x2 = "473.571" y2 = "240"/>
<line x1 = "480" y1 = "232" x2 = "480" y2 = "240"/>
</g>
<g stroke = "black" stroke-width = "2" fill = "none">
<path d = "M 480 232 a 2.550000e+01 40 0 1 1 0 8 L 435 240" stroke="rgb(69,181,215)"/>
<line x1 = "345" y1 = "232" x2 = "480" y2 = "232" stroke = "rgb(241,139,17)"/>
<path d = "M 435 240 L 390 240 L 345 288" stroke = "rgb(0,159,47)"/>
<use x="345" y="288" stroke="rgb(0,159,47)" xlink:href="#arrow" transform="rotate(136.848,345,288)"/>
</g>
<g stroke="none" fill="black" font-size="16">
<text x="366" y="224" stroke="none" fill="black">6</text>
<text x="411" y="224" stroke="none" fill="black">16</text>
<text x="456" y="224" stroke="none" fill="black">15</text>
<text x="525" y="208" stroke="none" fill="black">33*</text>
<text x="525" y="272" stroke="none" fill="black">34*</text>
<text x="456" y="256" stroke="none" fill="black">15*</text>
<text x="411" y="256" stroke="none" fill="black">16*</text>
<text x="381" y="272" stroke="none" fill="black">33*</text>
<text x="366" y="288" stroke="none" fill="black">34*</text>
</g>
<text x="540" y="240" font-size="20" stroke-width="1" fill="black" stroke="none">M5</text>
<g stroke = "black" stroke-width = "1" fill = "none">
<line x1 = "396.429" y1 = "392" x2 = "396.429" y2 = "400"/>
<line x1 = "402.857" y1 = "392" x2 = "402.857" y2 = "400"/>
<line x1 = "409.286" y1 = "392" x2 = "409.286" y2 = "400"/>
<line x1 = "415.714" y1 = "392" x2 = "415.714" y2 = "400"/>
<line x1 = "422.143" y1 = "392" x2 = "422.143" y2 = "400"/>
<line x1 = "428.571" y1 = "392" x2 = "428.571" y2 = "400"/>
<line x1 = "435" y1 = "392" x2 = "435" y2 = "400"/>
<line x1 = "441.429" y1 = "392" x2 = "441.429" y2 = "400"/>
<line x1 = "447.857" y1 = "392" x2 = "447.857" y2 = "400"/>
<line x1 = "454.286" y1 = "392" x2 = "454.286" y2 = "400"/>
<line x1 = "460.714" y1 = "392" x2 = "460.714" y2 = "400"/>
<line x1 = "467.143" y1 = "392" x2 = "467.143" y2 = "400"/>
<line x1 = "473.571" y1 = "392" x2 = "473.571" y2 = "400"/>
<line x1 = "480" y1 = "392" x2 = "480" y2 = "400"/>
</g>
<g stroke = "black" stroke-width = "2" fill = "none">
<path d = "M 480 392 a 2.550000e+01 40 0 1 1 0 8 L 435 400" stroke="rgb(69,181,215)"/>
<line x1 = "345" y1 = "392" x2 = "480" y2 = "392" stroke = "rgb(241,139,17)"/>
<path d = "M 435 400 L 390 400 L 345 448" stroke = "rgb(0,159,47)"/>
<use x="345" y="392" stroke="rgb(241,139,17)" xlink:href="#arrow" transform="rotate(180,345,392)"/>
</g>
<g stroke="none" fill="black" font-size="16">
<text x="366" y="384" stroke="none" fill="black">7</text>
<text x="411" y="384" stroke="none" fill="black">15</text>
<text x="456" y="384" stroke="none" fill="black">16</text>
<text x="525" y="368" stroke="none" fill="black">34*</text>
<text x="525" y="432" stroke="none" fill="black">33*</text>
<text x="456" y="416" stroke="none" fill="black">16*</text>
<text x="411" y="416" stroke="none" fill="black">15*</text>
<text x="381" y="432" stroke="none" fill="black">34*</text>
<text x="366" y="448" stroke="none" fill="black">33*</text>
</g>
<text x="540" y="400" font-size="20" stroke-width="1" fill="black" stroke="none">M6</text>
<g stroke = "black" stroke-width = "1" fill = "none">
<line x1 = "696.429" y1 = "72" x2 = "696.429" y2 = "80"/>
<line x1 = "702.857" y1 = "72" x2 = "702.857" y2 = "80"/>
<line x1 = "709.286" y1 = "72" x2 = "709.286" y2 = "80"/>
<line x1 = "715.714" y1 = "72" x2 = "715.714" y2 = "80"/>
<line x1 = "722.143" y1 = "72" x2 = "722.143" y2 = "80"/>
<line x1 = "728.571" y1 = "72" x2 = "728.571" y2 = "80"/>
<line x1 = "735" y1 = "72" x2 = "735" y2 = "80"/>
<line x1 = "741.429" y1 = "72" x2 = "741.429" y2 = "80"/>
<line x1 = "747.857" y1 = "72" x2 = "747.857" y2 = "80"/>
<line x1 = "754.286" y1 = "72" x2 = "754.286" y2 = "80"/>
<line x1 = "760.714" y1 = "72" x2 = "760.714" y2 = "80"/>
<line x1 = "767.143" y1 = "72" x2 = "767.143" y2 = "80"/>
<line x1 = "773.571" y1 = "72" x2 = "773.571" y2 = "80"/>
<line x1 = "780" y1 = "72" x2 = "780" y2 = "80"/>
</g>
<g stroke = "black" stroke-width = "2" fill = "none">
<path d = "M 780 72 a 2.550000e+01 40 0 1 1 0 8 L 735 80" stroke="rgb(69,181,215)"/>
<line x1 = "645" y1 = "72" x2 = "780" y2 = "72" stroke = "rgb(241,139,17)"/>
<path d = "M 735 80 L 690 80 L 645 128" stroke = "rgb(0,159,47)"/>
<use x="645" y="128" stroke="rgb(0,159,47)" xlink:href="#arrow" transform="rotate(136.848,645,128)"/>
</g>
<g stroke="none" fill="black" font-size="16">
<text x="666" y="64" stroke="none" fill="black">15</text>
<text x="711" y="64" stroke="none" fill="black">34</text>
<text x="756" y="64" stroke="none" fill="black">33</text>
<text x="825" y="48" stroke="none" fill="black">51*</text>
<text x="825" y="112" stroke="none" fill="black">52*</text>
<text x="756" y="96" stroke="none" fill="black">33*</text>
<text x="711" y="96" stroke="none" fill="black">34*</text>
<text x="681" y="112" stroke="none" fill="black">55*</text>
<text x="666" y="128" stroke="none" fill="black">56*</text>
</g>
<text x="840" y="80" font-size="20" stroke-width="1" fill="black" stroke="none">M7</text>
<g stroke = "black" stroke-width = "1" fill = "none">
<line x1 = "696.429" y1 = "232" x2 = "696.429" y2 = "240"/>
<line x1 = "702.857" y1 = "232" x2 = "702.857" y2 = "240"/>
<line x1 = "709.286" y1 = "232" x2 = "709.286" y2 = "240"/>
<line x1 = "715.714" y1 = "232" x2 = "715.714" y2 = "240"/>
<line x1 = "722.143" y1 = "232" x2 = "722.143" y2 = "240"/>
<line x1 = "728.571" y1 = "232" x2 = "728.571" y2 = "240"/>
<line x1 = "735" y1 = "232" x2 = "735" y2 = "240"/>
<line x1 = "741.429" y1 = "232" x2 = "741.429" y2 = "240"/>
<line x1 = "747.857" y1 = "232" x2 = "747.857" y2 = "240"/>
<line x1 = "754.286" y1 = "232" x2 = "754.286" y2 = "240"/>
<line x1 = "760.714" y1 = "232" x2 = "760.714" y2 = "240"/>
<line x1 = "767.143" y1 = "232" x2 = "767.143" y2 = "240"/>
<line x1 = "773.571" y1 = "232" x2 = "773.571" y2 = "240"/>
<line x1 = "780" y1 = "232" x2 = "780" y2 = "240"/>
</g>
<g stroke = "black" stroke-width = "2" fill = "none">
<path d = "M 780 232 a 2.550000e+01 40 0 1 1 0 8 L 735 240" stroke="rgb(69,181,215)"/>
<line x1 = "645" y1 = "232" x2 = "780" y2 = "232" stroke = "rgb(241,139,17)"/>
<path d = "M 735 240 L 690 240 L 645 288" stroke = "rgb(0,159,47)"/>
<use x="645" y="232" stroke="rgb(241,139,17)" xlink:href="#arrow" transform="rotate(180,645,232)"/>
</g>
<g stroke="none" fill="black" font-size="16">
<text x="666" y="224" stroke="none" fill="black">16</text>
<text x="711" y="224" stroke="none" fill="black">33</text>
<text x="756" y="224" stroke="none" fill="black">34</text>
<text x="825" y="208" stroke="none" fill="black">56*</text>
<text x="825" y="272" stroke="none" fill="black">55*</text>
<text x="756" y="256" stroke="none" fill="black">34*</text>
<text x="711" y="256" stroke="none" fill="black">33*</text>
<text x="681" y="272" stroke="none" fill="black">52*</text>
<text x="666" y="288" stroke="none" fill="black">51*</text>
</g>
<text x="840" y="240" font-size="20" stroke-width="1" fill="black" stroke="none">M8</text>
<g stroke = "black" stroke-width = "1" fill = "none">
<line x1 = "696.429" y1 = "392" x2 = "696.429" y2 = "400"/>
<line x1 = "702.857" y1 = "392" x2 = "702.857" y2 = "400"/>
<line x1 = "709.286" y1 = "392" x2 = "709.286" y2 = "400"/>
<line x1 = "715.714" y1 = "392" x2 = "715.714" y2 = "400"/>
<line x1 = "722.143" y1 = "392" x2 = "722.143" y2 = "400"/>
<line x1 = "728.571" y1 = "392" x2 = "728.571" y2 = "400"/>
<line x1 = "735" y1 = "392" x2 = "735" y2 = "400"/>
<line x1 = "741.429" y1 = "392" x2 = "741.429" y2 = "400"/>
<line x1 = "747.857" y1 = "392" x2 = "747.857" y2 = "400"/>
<line x1 = "754.286" y1 = "392" x2 = "754.286" y2 = "400"/>
<line x1 = "760.714" y1 = "392" x2 = "760.714" y2 = "400"/>
<line x1 = "767.143" y1 = "392" x2 = "767.143" y2 = "400"/>
<line x1 = "773.571" y1 = "392" x2 = "773.571" y2 = "400"/>
<line x1 = "780" y1 = "392" x2 = "780" y2 = "400"/>
</g>
<g stroke = "black" stroke-width = "2" fill = "none">
<path d = "M 780 392 a 2.550000e+01 40 0 1 1 0 8 L 735 400" stroke="rgb(69,181,215)"/>
<line x1 = "645" y1 = "392" x2 = "780" y2 = "392" stroke = "rgb(241,139,17)"/>
<path d = "M 735 400 L 690 400 L 645 448" stroke = "rgb(0,159,47)"/>
<use x="645" y="448" stroke="rgb(0,159,47)" xlink:href="#arrow" transform="rotate(136.848,645,448)"/>
</g>
<g stroke="none" fill="black" font-size="16">
<text x="666" y="384" stroke="none" fill="black">33</text>
<text x="711" y="384" stroke="none" fill="black">52</text>
<text x="756" y="384" stroke="none" fill="black">51</text>
<text x="825" y="368" stroke="none" fill="black">69*</text>
<text x="825" y="432" stroke="none" fill="black">70*</text>
<text x="756" y="416" stroke="none" fill="black">51*</text>
<text x="711" y="416" stroke="none" fill="black">52*</text>
<text x="681" y="432" stroke="none" fill="black">73*</text>
<text x="666" y="448" stroke="none" fill="black">74*</text>
</g>
<text x="840" y="400" font-size="20" stroke-width="1" fill="black" stroke="none">M9</text>
<g stroke = "black" stroke-width = "1" fill = "none">
<line x1 = "996.429" y1 = "72" x2 = "996.429" y2 = "80"/>
<line x1 = "1002.86" y1 = "72" x2 = "1002.86" y2 = "80"/>
<line x1 = "1009.29" y1 = "72" x2 = "1009.29" y2 = "80"/>
<line x1 = "1015.71" y1 = "72" x2 = "1015.71" y2 = "80"/>
<line x1 = "1022.14" y1 = "72" x2 = "1022.14" y2 = "80"/>
<line x1 = "1028.57" y1 = "72" x2 = "1028.57" y2 = "80"/>
<line x1 = "1035" y1 = "72" x2 = "1035" y2 = "80"/>
<line x1 = "1041.43" y1 = "72" x2 = "1041.43" y2 = "80"/>
<line x1 = "1047.86" y1 = "72" x2 = "1047.86" y2 = "80"/>
<line x1 = "1054.29" y1 = "72" x2 = "1054.29" y2 = "80"/>
<line x1 = "1060.71" y1 = "72" x2 = "1060.71" y2 = "80"/>
<line x1 = "1067.14" y1 = "72" x2 = "1067.14" y2 = "80"/>
<line x1 = "1073.57" y1 = "72" x2 = "1073.57" y2 = "80"/>
<line x1 = "1080" y1 = "72" x2 = "1080" y2 = "80"/>
</g>
<g stroke = "black" stroke-width = "2" fill = "none">
<path d = "M 1080 72 a 2.550000e+01 40 0 1 1 0 8 L 1035 80" stroke="rgb(69,181,215)"/>
<line x1 = "945" y1 = "72" x2 = "1080" y2 = "72" stroke = "rgb(241,139,17)"/>
<path d = "M 1035 80 L 990 80 L 945 128" stroke = "rgb(0,159,47)"/>
<use x="945" y="72" stroke="rgb(241,139,17)" xlink:href="#arrow" transform="rotate(180,945,72)"/>
</g>
<g stroke="none" fill="black" font-size="16">
<text x="966" y="64" stroke="none" fill="black">34</text>
<text x="1011" y="64" stroke="none" fill="black">55</text>
<text x="1056" y="64" stroke="none" fill="black">56</text>
<text x="1125" y="48" stroke="none" fill="black">78*</text>
<text x="1125" y="112" stroke="none" fill="black">79*</text>
<text x="1056" y="96" stroke="none" fill="black">56*</text>
<text x="1011" y="96" stroke="none" fill="black">55*</text>
<text x="981" y="112" stroke="none" fill="black">82*</text>
<text x="966" y="128" stroke="none" fill="black">83*</text>
</g>
<text x="1140" y="80" font-size="20" stroke-width="1" fill="black" stroke="none">M10</text>
</svg>
